<svg width="161" height="161" viewBox="0 0 161 161" fill="none" xmlns="http://www.w3.org/2000/svg">
<g opacity="0.28">
<path fill-rule="evenodd" clip-rule="evenodd" d="M78.8345 32.9334C80.6441 32.9334 82.0918 34.4089 82.0918 36.1907V124.666C82.0918 126.475 80.6163 127.923 78.8345 127.923C77.0249 127.923 75.5772 126.447 75.5772 124.666V36.2185C75.5772 34.4089 77.0528 32.9613 78.8345 32.9613V32.9334Z" fill="white" stroke="#231F20" stroke-miterlimit="10"/>
<path d="M78.8345 128.647C76.6351 128.647 74.8534 126.865 74.8534 124.666V36.2185C74.8534 34.0192 76.6351 32.2374 78.8345 32.2374C81.0338 32.2374 82.8156 34.0192 82.8156 36.2185V124.694C82.8156 126.893 81.0338 128.675 78.8345 128.675V128.647ZM78.8345 33.6294C77.4147 33.6294 76.2732 34.7708 76.2732 36.1907V124.666C76.2732 126.085 77.4147 127.227 78.8345 127.227C80.2543 127.227 81.3958 126.085 81.3958 124.666V36.2185C81.3958 34.7987 80.2543 33.6572 78.8345 33.6572V33.6294Z" fill="#070707" stroke="#231F20" stroke-miterlimit="10"/>
<path fill-rule="evenodd" clip-rule="evenodd" d="M126.357 80.456C126.357 82.2656 124.882 83.7411 123.1 83.7411H34.597C32.7874 83.7411 31.3398 82.2656 31.3398 80.456C31.3398 78.6464 32.8153 77.1987 34.597 77.1987H123.072C124.882 77.1987 126.329 78.6743 126.329 80.456H126.357Z" fill="white" stroke="#231F20" stroke-miterlimit="10"/>
<path d="M123.072 84.4371H34.597C32.3977 84.4371 30.6159 82.6554 30.6159 80.456C30.6159 78.2567 32.3977 76.4749 34.597 76.4749H123.072C125.271 76.4749 127.053 78.2567 127.053 80.456C127.053 82.6554 125.271 84.4371 123.072 84.4371ZM34.597 77.8947C33.1772 77.8947 32.0357 79.0362 32.0357 80.456C32.0357 81.8758 33.1772 83.0173 34.597 83.0173H123.072C124.492 83.0173 125.633 81.8758 125.633 80.456C125.633 79.0362 124.492 77.8947 123.072 77.8947H34.597Z" fill="#070707" stroke="#231F20" stroke-miterlimit="10"/>
<path fill-rule="evenodd" clip-rule="evenodd" d="M78.8345 121.77C101.608 121.77 120.177 103.201 120.177 80.4282C120.177 57.6552 101.608 39.086 78.8345 39.086C56.0615 39.086 37.4924 57.6552 37.4924 80.4282C37.4924 103.201 56.0615 121.77 78.8345 121.77Z" fill="white" stroke="#231F20" stroke-miterlimit="10"/>
<path d="M78.8345 122.494C55.6439 122.494 36.7685 103.619 36.7685 80.456C36.7685 57.2933 55.6439 38.39 78.8345 38.39C102.025 38.39 120.901 57.2654 120.901 80.456C120.901 103.647 102.025 122.494 78.8345 122.494ZM78.8345 39.8098C56.4234 39.8098 38.1884 58.0449 38.1884 80.456C38.1884 102.867 56.4234 121.074 78.8345 121.074C101.246 121.074 119.481 102.839 119.481 80.456C119.481 58.0728 101.246 39.8098 78.8345 39.8098Z" fill="#070707" stroke="#231F20" stroke-miterlimit="10"/>
<path fill-rule="evenodd" clip-rule="evenodd" d="M107.008 34.8265L128.501 56.3189C129.976 57.7944 132.398 57.7944 133.874 56.3189L156.146 34.047L129.252 7.18155L106.981 29.4534C105.505 30.9289 105.505 33.351 106.981 34.8265H107.008Z" fill="white" stroke="#231F20" stroke-miterlimit="10"/>
<path d="M131.173 58.1563C129.976 58.1563 128.835 57.683 127.972 56.8478L106.479 35.3555C105.616 34.5203 105.171 33.3788 105.171 32.1817C105.171 30.9846 105.644 29.8432 106.479 28.9801L129.252 6.17932L157.12 34.047L134.347 56.82C133.512 57.683 132.37 58.1285 131.146 58.1285L131.173 58.1563ZM129.252 8.21163L107.482 29.9824C106.897 30.567 106.591 31.3465 106.591 32.1539C106.591 32.9891 106.897 33.7686 107.482 34.3254L128.974 55.8178C130.143 56.987 132.176 56.987 133.345 55.8178L155.116 34.047L129.252 8.18379V8.21163Z" fill="#070707" stroke="#231F20" stroke-miterlimit="10"/>
<path fill-rule="evenodd" clip-rule="evenodd" d="M133.846 6.0958L157.231 29.4813C158.707 30.9568 160.183 33.7408 157.538 34.5481L154.837 35.3833L127.944 8.49003L128.779 5.78957C129.67 2.83854 132.371 4.62029 133.846 6.0958Z" fill="white" stroke="#231F20" stroke-miterlimit="10"/>
<path d="M154.615 36.1628L127.164 8.71275L128.111 5.59469C128.668 3.7851 129.837 3.5067 130.505 3.5067C132.092 3.5067 133.735 4.98221 134.347 5.62253L157.733 29.008C158.846 30.1216 160.015 31.959 159.626 33.4902C159.486 34.0748 159.041 34.8822 157.733 35.2441L154.615 36.1907V36.1628ZM128.751 8.29515L155.032 34.576L157.343 33.88C158.122 33.6294 158.234 33.2396 158.262 33.1283C158.456 32.4045 157.788 31.0681 156.73 30.0102L133.345 6.59692C132.315 5.56685 131.201 4.89869 130.505 4.89869C130.31 4.89869 129.809 4.89869 129.475 5.98444L128.779 8.29515H128.751Z" fill="#070707" stroke="#231F20" stroke-miterlimit="10"/>
<path fill-rule="evenodd" clip-rule="evenodd" d="M53.194 125.39L31.7016 103.897C30.2261 102.422 27.8041 102.422 26.3285 103.897L4.05667 126.169L30.9221 153.034L53.194 130.763C54.6695 129.287 54.6695 126.865 53.194 125.39Z" fill="white" stroke="#231F20" stroke-miterlimit="10"/>
<path d="M30.9221 154.037L3.05444 126.141L25.8274 103.368C27.5257 101.67 30.5045 101.67 32.2028 103.368L53.6951 124.861C55.449 126.614 55.449 129.482 53.6951 131.236L30.9221 154.009V154.037ZM5.05891 126.141L30.9221 152.004L52.6929 130.234C53.89 129.037 53.89 127.06 52.6929 125.863L31.2005 104.37C30.0312 103.201 27.9989 103.201 26.8297 104.37L5.05891 126.141Z" fill="#070707" stroke="#231F20" stroke-miterlimit="10"/>
<path fill-rule="evenodd" clip-rule="evenodd" d="M26.3564 154.12L2.97094 130.735C1.49543 129.259 0.0199188 126.475 2.6647 125.668L5.36517 124.833L32.2306 151.698L31.4233 154.399C30.5324 157.35 27.8319 155.568 26.3564 154.092V154.12Z" fill="white" stroke="#231F20" stroke-miterlimit="10"/>
<path d="M29.6972 156.737C28.1103 156.737 26.4678 155.262 25.8553 154.621L2.46982 131.236C1.35622 130.122 0.186951 128.285 0.576708 126.781C0.715908 126.197 1.16135 125.39 2.46982 125L5.58788 124.053L33.0658 151.531L32.1192 154.649C31.5624 156.459 30.3932 156.737 29.725 156.737H29.6972ZM5.17028 125.64L2.85958 126.336C2.05222 126.587 1.9687 126.976 1.94086 127.088C1.74598 127.812 2.41414 129.148 3.47205 130.206L26.8575 153.591C27.8876 154.621 29.0012 155.289 29.6972 155.289C29.8921 155.289 30.3932 155.289 30.7273 154.204L31.4232 151.893L5.17028 125.64Z" fill="#070707" stroke="#231F20" stroke-miterlimit="10"/>
<path fill-rule="evenodd" clip-rule="evenodd" d="M125.383 107.015L103.89 128.508C102.415 129.983 102.415 132.405 103.89 133.881L126.162 156.153L153.028 129.287L130.756 107.015C129.28 105.54 126.858 105.54 125.383 107.015Z" fill="white" stroke="#231F20" stroke-miterlimit="10"/>
<path d="M126.134 157.155L103.361 134.382C101.607 132.628 101.607 129.76 103.361 128.006L124.854 106.514C126.552 104.816 129.531 104.816 131.229 106.514L154.002 129.287L126.134 157.155ZM128.055 106.625C127.22 106.625 126.441 106.96 125.884 107.516L104.391 129.009C103.194 130.206 103.194 132.182 104.391 133.38L126.162 155.15L152.025 129.287L130.255 107.516C129.67 106.932 128.891 106.625 128.083 106.625H128.055Z" fill="#070707" stroke="#231F20" stroke-miterlimit="10"/>
<path fill-rule="evenodd" clip-rule="evenodd" d="M154.113 133.853L130.728 157.238C129.252 158.714 126.468 160.189 125.661 157.545L124.854 154.844L151.719 127.979L154.42 128.814C157.371 129.705 155.589 132.405 154.113 133.881V133.853Z" fill="white" stroke="#231F20" stroke-miterlimit="10"/>
<path d="M127.359 159.716C126.691 159.716 125.494 159.465 124.965 157.767L124.019 154.649L151.496 127.171L154.615 128.118C156.007 128.535 156.48 129.343 156.647 129.927C157.092 131.653 155.366 133.602 154.615 134.354L131.229 157.739C130.283 158.686 128.751 159.716 127.387 159.716H127.359ZM125.633 155.039L126.329 157.35C126.58 158.185 127.025 158.296 127.359 158.296C128.111 158.296 129.28 157.656 130.199 156.737L153.584 133.352C154.754 132.182 155.422 130.957 155.255 130.289C155.171 129.955 154.809 129.677 154.197 129.482L151.886 128.786L125.605 155.067L125.633 155.039Z" fill="#070707" stroke="#231F20" stroke-miterlimit="10"/>
<path fill-rule="evenodd" clip-rule="evenodd" d="M34.8197 53.2008L56.3121 31.7084C57.7876 30.2329 57.7876 27.8109 56.3121 26.3354L34.068 4.06349L7.17474 30.9568L29.4466 53.2286C30.9221 54.7042 33.3442 54.7042 34.8197 53.2286V53.2008Z" fill="white" stroke="#231F20" stroke-miterlimit="10"/>
<path d="M32.1471 55.0382C30.95 55.0382 29.8085 54.565 28.9455 53.7298L6.17252 30.9568L34.068 3.06126L56.841 25.8343C57.7041 26.6694 58.1495 27.8109 58.1495 29.008C58.1495 30.2051 57.6762 31.3465 56.841 32.2096L35.3487 53.7019C34.5135 54.565 33.372 55.0104 32.1749 55.0104L32.1471 55.0382ZM8.17698 30.9568L29.9477 52.7275C31.117 53.8968 33.1493 53.8968 34.3186 52.7275L55.8109 31.2352C56.3956 30.6505 56.7018 29.871 56.7018 29.0637C56.7018 28.2563 56.3956 27.449 55.8109 26.8922L34.068 5.06573L8.17698 30.9568Z" fill="#070707" stroke="#231F20" stroke-miterlimit="10"/>
<path fill-rule="evenodd" clip-rule="evenodd" d="M6.08901 26.3632L29.4745 2.97775C30.95 1.50224 33.734 0.0267242 34.5413 2.67151L35.3765 5.37197L8.48324 32.2653L5.78278 31.4579C2.83175 30.567 4.6135 27.8666 6.08901 26.3911V26.3632Z" fill="white" stroke="#231F20" stroke-miterlimit="10"/>
<path d="M8.67811 33.0448L5.56005 32.0982C4.16806 31.6806 3.69478 30.8733 3.52774 30.2886C3.11015 28.5626 4.80838 26.6138 5.56005 25.8621L28.9734 2.47663C29.9199 1.53007 31.4511 0.5 32.8153 0.5C33.4834 0.5 34.6805 0.750559 35.2095 2.47663L36.156 5.59469L8.67811 33.0448ZM32.8431 1.91983C32.0914 1.91983 30.9221 2.56015 30.0034 3.47886L6.59013 26.8643C5.42085 28.0336 4.7527 29.2585 4.91974 29.9267C5.00326 30.2608 5.36517 30.5392 5.97765 30.7341L8.28836 31.4301L34.5692 5.17709L33.8732 2.86639C33.6226 2.03119 33.1772 1.91983 32.8431 1.91983Z" fill="#070707" stroke="#231F20" stroke-miterlimit="10"/>
</g>
</svg>
